<svg width="177" height="55" viewBox="0 0 177 55" fill="none" xmlns="http://www.w3.org/2000/svg">
<path d="M65.9982 31.7042C65.9982 32.6644 65.8 33.5542 65.4036 34.3739C65.0072 35.1935 64.4709 35.9429 63.7948 36.622C63.1186 37.2777 62.3258 37.8632 61.4165 38.3784C60.5304 38.8701 59.5861 39.2917 58.5835 39.6429C57.6042 39.9708 56.5899 40.2284 55.5407 40.4157C54.5147 40.5797 53.5238 40.6616 52.5678 40.6616C51.7051 40.6616 50.9006 40.5914 50.1545 40.4509C51.2737 36.3527 52.1597 32.2311 52.8126 28.0861C53.4888 23.9177 54.13 19.7259 54.7362 15.5106C55.9487 15.253 57.2078 15.0306 58.5135 14.8432C59.8193 14.6325 61.1716 14.5271 62.5706 14.5271C63.1535 14.5271 63.7714 14.5973 64.4243 14.7378C65.0772 14.8783 65.6717 15.1359 66.208 15.5106C66.7443 15.8853 67.1873 16.3771 67.5371 16.986C67.9101 17.5948 68.0967 18.3676 68.0967 19.3044C68.0967 20.1942 67.9451 21.0256 67.642 21.7984C67.3622 22.5712 66.9891 23.2737 66.5228 23.906C66.0798 24.5383 65.5668 25.0886 64.9839 25.557C64.401 26.0019 63.8064 26.3415 63.2002 26.5757C63.5033 26.7396 63.8181 26.9738 64.1445 27.2782C64.4709 27.5826 64.7741 27.9456 65.0539 28.3671C65.3337 28.7652 65.5552 29.2453 65.7184 29.8073C65.9049 30.3694 65.9982 31.0017 65.9982 31.7042ZM57.9889 28.051C57.8956 28.613 57.8024 29.1165 57.7091 29.5615C57.6392 29.983 57.5692 30.3928 57.4993 30.7909C57.4293 31.189 57.3477 31.6105 57.2544 32.0555C57.1845 32.477 57.1029 32.9805 57.0096 33.5659C57.4526 33.5191 57.9539 33.4371 58.5135 33.3201C59.0731 33.203 59.6094 33.0273 60.1224 32.7932C60.6353 32.5356 61.0667 32.2077 61.4165 31.8096C61.7662 31.3881 61.9411 30.8846 61.9411 30.2991C61.9411 29.8776 61.8245 29.5263 61.5913 29.2453C61.3815 28.9643 61.1017 28.7301 60.7519 28.5428C60.4255 28.3554 60.0641 28.2266 59.6677 28.1564C59.2713 28.0627 58.8983 28.0159 58.5485 28.0159C58.4319 28.0159 58.327 28.0159 58.2337 28.0159C58.1638 28.0159 58.0822 28.0276 57.9889 28.051ZM59.5628 19.5502C59.5161 19.8078 59.4579 20.1123 59.3879 20.4635C59.3413 20.8148 59.283 21.1895 59.213 21.5876C59.1431 21.9623 59.0615 22.337 58.9682 22.7117C58.8983 23.0864 58.84 23.4142 58.7933 23.6952C59.3063 23.6016 59.8193 23.4728 60.3322 23.3088C60.8452 23.1449 61.2999 22.9693 61.6963 22.7819C62.116 22.5712 62.4424 22.3487 62.6755 22.1145C62.932 21.8803 63.0603 21.6227 63.0603 21.3417C63.0603 20.9905 62.9553 20.7094 62.7455 20.4987C62.5356 20.2645 62.2559 20.0771 61.9061 19.9366C61.5797 19.7961 61.2299 19.7025 60.8568 19.6556C60.5071 19.5854 60.1923 19.5502 59.9125 19.5502H59.5628Z" fill="white"/>
<path d="M83.3425 39.8186C82.7596 39.9122 82.1184 40.0176 81.4189 40.1347C80.7194 40.2518 80.0899 40.3572 79.5303 40.4509C79.6235 39.6781 79.7168 38.917 79.8101 38.1676C79.88 37.5119 79.9383 36.8562 79.9849 36.2005C80.0549 35.5448 80.1132 34.9827 80.1598 34.5144H77.117L75.718 39.5727C75.205 39.6429 74.5988 39.7249 73.8993 39.8186C73.1998 39.8888 72.5469 39.9591 71.9407 40.0293C71.1946 40.123 70.4601 40.2167 69.7373 40.3103C70.6699 37.1957 71.591 34.128 72.5003 31.1071C72.8734 29.8425 73.2581 28.5194 73.6545 27.1377C74.0742 25.756 74.4822 24.3861 74.8786 23.0278C75.2983 21.6462 75.6947 20.323 76.0678 19.0585C76.4408 17.7939 76.7673 16.6347 77.0471 15.5809C78.6326 15.4638 80.2414 15.3233 81.8736 15.1594C83.5291 14.9954 85.1379 14.773 86.7001 14.4919C86.6302 15.2413 86.5486 16.178 86.4553 17.3021C86.3854 18.4028 86.3154 19.6088 86.2455 20.9202C86.1755 22.2316 86.1056 23.6016 86.0356 25.0301C85.9657 26.4586 85.8957 27.8637 85.8258 29.2453C85.7092 32.477 85.5809 35.9078 85.441 39.5376C84.7415 39.6546 84.042 39.7483 83.3425 39.8186ZM77.9564 31.0017C78.0497 31.0017 78.2129 31.0017 78.4461 31.0017C78.7025 30.9783 78.959 30.9665 79.2155 30.9665C79.4953 30.9431 79.7518 30.9314 79.9849 30.9314C80.2181 30.908 80.3813 30.8846 80.4746 30.8612C80.4746 30.7207 80.4863 30.4865 80.5096 30.1586C80.5562 29.8074 80.5912 29.421 80.6145 28.9994C80.6611 28.5545 80.7078 28.0744 80.7544 27.5592C80.801 27.044 80.8477 26.5405 80.8943 26.0488C80.9876 24.8544 81.1041 23.5664 81.244 22.1848L81.4539 19.1287L80.9293 19.1638L80.1248 22.1848L77.9564 31.0017Z" fill="white"/>
<path d="M95.2267 39.6781C94.5739 39.7951 93.8627 39.9357 93.0933 40.0996C92.3238 40.2635 91.6476 40.4157 91.0647 40.5562C91.3445 39.5493 91.6126 38.4252 91.8691 37.184C92.1489 35.9195 92.4171 34.5963 92.6736 33.2147C92.9534 31.833 93.2098 30.4396 93.443 29.0346C93.6995 27.6061 93.9443 26.2361 94.1775 24.9247C94.6671 21.8101 95.1568 18.5901 95.6464 15.2647L107.363 14.6676L106.349 18.9882H100.858L99.7735 25.2408C100.496 25.2174 101.184 25.2057 101.837 25.2057C102.373 25.2057 102.921 25.2057 103.481 25.2057C104.04 25.2057 104.472 25.194 104.775 25.1706C104.705 25.8263 104.612 26.4703 104.495 27.1026C104.402 27.7349 104.309 28.3671 104.215 28.9994C103.912 28.9994 103.481 28.9994 102.921 28.9994C102.362 28.976 101.779 28.9526 101.172 28.9292C100.59 28.9058 99.925 28.8823 99.1789 28.8589L97.5701 39.2214C96.7773 39.3619 95.9962 39.5141 95.2267 39.6781Z" fill="white"/>
<path d="M112.469 39.6781C111.816 39.7951 111.105 39.9357 110.336 40.0996C109.566 40.2635 108.89 40.4157 108.307 40.5562C108.587 39.5493 108.855 38.4252 109.112 37.184C109.391 35.9195 109.66 34.5963 109.916 33.2147C110.196 31.833 110.452 30.4396 110.685 29.0346C110.942 27.6061 111.187 26.2361 111.42 24.9247C111.91 21.8101 112.399 18.5901 112.889 15.2647L124.605 14.6676L123.591 18.9882H118.1L117.016 25.2408C117.739 25.2174 118.427 25.2057 119.079 25.2057C119.616 25.2057 120.164 25.2057 120.723 25.2057C121.283 25.2057 121.714 25.194 122.017 25.1706C121.947 25.8263 121.854 26.4703 121.738 27.1026C121.644 27.7349 121.551 28.3671 121.458 28.9994C121.155 28.9994 120.723 28.9994 120.164 28.9994C119.604 28.976 119.021 28.9526 118.415 28.9292C117.832 28.9058 117.167 28.8823 116.421 28.8589L114.813 39.2214C114.02 39.3619 113.239 39.5141 112.469 39.6781Z" fill="white"/>
<path d="M135.063 39.397C134.34 39.397 133.571 39.4205 132.754 39.4673C131.962 39.5141 131.157 39.5844 130.341 39.6781C129.525 39.7717 128.721 39.9005 127.928 40.0645C127.158 40.205 126.459 40.3806 125.829 40.5914C125.969 39.5375 126.133 38.3666 126.319 37.0787C126.506 35.7907 126.715 34.4558 126.949 33.0742C127.205 31.6925 127.45 30.2991 127.683 28.894C127.94 27.489 128.196 26.1424 128.453 24.8544C129.035 21.7867 129.653 18.6604 130.306 15.4755L136.427 14.6676C135.797 17.3841 135.191 20.0303 134.608 22.6063C134.352 23.7069 134.095 24.8544 133.839 26.0488C133.582 27.2197 133.337 28.3671 133.104 29.4912C132.871 30.6153 132.661 31.7042 132.475 32.758C132.288 33.8118 132.137 34.7486 132.02 35.5682C132.603 35.5214 133.221 35.4979 133.874 35.4979C134.55 35.4745 135.144 35.4628 135.657 35.4628C135.681 35.9078 135.716 36.3527 135.762 36.7976C135.809 37.2192 135.856 37.6056 135.902 37.9568C135.972 38.3081 136.019 38.6242 136.042 38.9053C136.089 39.1629 136.124 39.3385 136.147 39.4322C135.96 39.4322 135.774 39.4322 135.587 39.4322C135.424 39.4088 135.249 39.397 135.063 39.397Z" fill="white"/>
<path d="M141.566 40.5562L146.147 15.5809L157.2 14.6325C157.036 15.1477 156.896 15.6746 156.78 16.2132C156.663 16.6581 156.547 17.1265 156.43 17.6183C156.337 18.0866 156.255 18.5081 156.185 18.8828C155.952 18.9062 155.614 18.9297 155.171 18.9531C154.751 18.9531 154.297 18.9648 153.807 18.9882C153.317 18.9882 152.816 18.9882 152.303 18.9882C151.813 18.9882 151.382 18.9882 151.009 18.9882L149.785 25.276C150.508 25.2291 151.184 25.194 151.813 25.1706C152.326 25.1472 152.851 25.1354 153.387 25.1354C153.924 25.1354 154.32 25.1237 154.576 25.1003C154.483 25.756 154.39 26.4 154.297 27.0323C154.227 27.6646 154.133 28.3086 154.017 28.9643C153.784 28.9877 153.399 29.0111 152.863 29.0346C152.35 29.0346 151.825 29.0463 151.289 29.0697C150.683 29.0931 150.018 29.1165 149.295 29.1399L148.106 35.6033L153.212 34.7954L152.863 38.7999L141.566 40.5562Z" fill="white"/>
<path d="M174.022 31.8447C174.022 33.1561 173.766 34.3505 173.253 35.4277C172.763 36.4815 172.087 37.3948 171.224 38.1676C170.385 38.9404 169.382 39.5376 168.216 39.9591C167.074 40.3806 165.838 40.5914 164.509 40.5914C163.576 40.5914 162.644 40.3455 161.711 39.8537C160.778 39.3385 159.881 38.5306 159.018 37.4299L161.606 32.3365C161.769 32.6409 162.014 32.9571 162.341 33.2849C162.667 33.5894 163.029 33.8587 163.425 34.0929C163.845 34.327 164.253 34.5261 164.649 34.69C165.069 34.8305 165.442 34.9008 165.768 34.9008C166.048 34.9008 166.34 34.8539 166.643 34.7603C166.946 34.6666 167.226 34.5261 167.482 34.3387C167.738 34.1514 167.937 33.9406 168.077 33.7065C168.24 33.4489 168.321 33.1561 168.321 32.8283C168.321 32.2662 168.135 31.751 167.762 31.2827C167.412 30.7909 166.969 30.3343 166.433 29.9127C165.896 29.4678 165.314 29.0228 164.684 28.5779C164.054 28.133 163.472 27.6646 162.935 27.1728C162.422 26.681 161.979 26.1307 161.606 25.5218C161.233 24.913 161.047 24.2339 161.047 23.4845C161.047 22.2667 161.408 21.131 162.131 20.0772C162.854 19.0233 163.751 18.1217 164.824 17.3724C165.92 16.5996 167.109 15.9907 168.391 15.5458C169.674 15.1008 170.886 14.8783 172.029 14.8783C172.658 14.8783 173.253 14.9603 173.812 15.1242C174.372 15.2647 174.85 15.5106 175.246 15.8619C175.666 16.1898 175.993 16.6113 176.226 17.1265C176.482 17.6417 176.61 18.2857 176.61 19.0585C176.61 19.3863 176.575 19.7142 176.506 20.042C176.459 20.3699 176.412 20.7211 176.366 21.0958L171.294 22.5712C171.341 22.3838 171.376 22.1965 171.399 22.0091C171.446 21.8218 171.469 21.6344 171.469 21.4471C171.469 20.7446 171.341 20.2411 171.084 19.9366C170.851 19.6088 170.537 19.4449 170.14 19.4449C169.954 19.4449 169.72 19.5151 169.441 19.6556C169.184 19.7961 168.916 19.9835 168.636 20.2177C168.38 20.4284 168.158 20.686 167.972 20.9905C167.785 21.2949 167.692 21.6227 167.692 21.974C167.692 22.536 167.843 23.0044 168.147 23.3791C168.473 23.7538 168.869 24.1051 169.336 24.4329C169.802 24.7608 170.303 25.1003 170.84 25.4516C171.399 25.7794 171.912 26.2127 172.379 26.7513C172.845 27.2899 173.23 27.969 173.533 28.7887C173.859 29.5849 174.022 30.6036 174.022 31.8447Z" fill="white"/>
<path d="M21.978 40.5255C22.3316 40.4669 22.6942 40.459 23.0498 40.5033C23.2956 40.5339 23.5369 40.5886 23.7783 40.6434C24.1672 40.7313 24.5555 40.8199 24.9445 40.9078C25.0003 40.9202 25.0593 40.9351 25.0998 40.9762C25.1376 41.0146 25.1524 41.0693 25.1646 41.1214C25.2795 41.6158 25.2596 42.142 25.1081 42.6266C25.0812 42.7132 25.0471 42.8024 24.9785 42.8611C24.8848 42.9405 24.7513 42.9431 24.6396 42.9926C24.3707 43.1112 24.2712 43.4739 24.0016 43.5918C23.9028 43.6348 23.7924 43.6394 23.6846 43.6394C23.3868 43.6407 23.0883 43.6166 22.7944 43.569C22.6525 43.5462 22.5068 43.5156 22.3881 43.4329C22.2693 43.3502 22.1833 43.2037 22.2109 43.061C22.2353 42.9353 22.3412 42.8318 22.3393 42.7034C22.3374 42.5322 22.1519 42.4299 21.9889 42.3856C21.8258 42.3413 21.6365 42.3022 21.555 42.1524C21.5056 42.0613 21.5107 41.9499 21.5248 41.8463C21.5653 41.5539 21.6705 41.2706 21.8297 41.0231" fill="#65B730"/>
<path d="M24.7403 42.7053C24.6338 42.1543 24.6973 41.3701 24.0234 41.2418C23.4451 41.1318 22.8489 41.1272 22.2809 40.9676C22.2565 40.9605 22.2546 40.9214 22.2809 40.9155C22.7205 40.8165 23.1512 40.855 23.5947 40.9155C23.87 40.9527 24.2127 40.9579 24.4618 41.0927C24.9707 41.3675 24.8591 42.2103 24.8635 42.689C24.8642 42.7587 24.7544 42.777 24.7403 42.7053Z" fill="#DDFC6D"/>
<path d="M18.3009 38.0837L19.0621 40.8257L19.3522 40.9104L21.4805 41.5246C21.4805 41.5181 21.4792 41.5122 21.4792 41.5051L21.5011 41.3429C21.5299 41.2393 21.5813 41.1494 21.6564 41.0732C21.6859 41.0361 21.7199 41.012 21.7584 40.9814C21.7976 40.9521 21.8335 40.9189 21.8765 40.8967C21.9105 40.8805 21.9452 40.8635 21.9805 40.8492C21.958 40.8283 21.9343 40.8095 21.9067 40.7938L21.485 40.5822L20.0338 39.8527L20.0191 39.7863L19.9299 39.3538L19.9119 39.2691L19.5878 37.7151C19.4883 37.3549 19.1186 37.1452 18.7637 37.2462C18.4075 37.3478 18.2008 37.7223 18.3009 38.0837Z" fill="#65B730"/>
<path d="M20.0538 40.0084C20.4382 40.2435 21.0409 40.4871 21.4613 40.6037C21.4741 40.6069 21.4837 40.5952 21.485 40.5822L20.0338 39.8527L20.0191 39.7863L19.9299 39.3538L19.9119 39.2691C19.8766 39.2502 19.8266 39.2809 19.8214 39.3382C19.7861 39.7342 19.7964 39.8514 20.0538 40.0084Z" fill="#DDFC6D"/>
<path d="M18.9634 39.3407C18.1868 39.3407 17.5572 38.5402 17.5572 37.5528C17.5572 36.5654 18.1868 35.765 18.9634 35.765C19.7401 35.765 20.3696 36.5654 20.3696 37.5528C20.3696 38.5402 19.7401 39.3407 18.9634 39.3407Z" fill="#DDFC6D"/>
<path d="M3.70533 15.6206C3.77785 19.197 4.56729 22.7577 6.01524 26.0214C6.02294 26.0376 6.03 26.0559 6.03771 26.0722C6.31305 25.8976 6.69364 26.0168 6.92342 26.2493C7.15319 26.4838 7.26872 26.8036 7.38424 27.1116C7.76163 28.1257 8.20321 29.1151 8.70254 30.0738C8.97211 30.589 9.27119 31.112 9.73331 31.4611C9.84755 31.5471 9.96757 31.6207 10.0947 31.6851C10.4162 31.8486 10.7698 31.9528 11.1177 32.0551C11.8372 32.2654 12.5586 32.4745 13.2781 32.6849C14.1221 32.9311 14.9648 33.1779 15.8088 33.4228C16.5745 33.6469 17.3427 33.869 18.1341 33.9562C19.2579 34.0813 20.3907 33.925 21.5107 33.77C23.3559 33.5127 25.2012 33.2574 27.0464 33.0021C27.323 32.9643 27.6048 32.9239 27.8641 32.8171C27.9103 32.7989 27.9559 32.7793 28.0001 32.7552C28.4013 32.5462 28.683 32.1645 28.9494 31.7952C29.3923 31.1836 29.8467 30.533 30.14 29.84C30.3563 29.3307 30.4853 28.7953 30.4551 28.2378C30.95 28.1414 31.4442 28.0469 31.939 27.9505C33.4627 27.6561 34.9851 27.3598 36.5088 27.0654L37.51 26.6101C40.1562 21.7221 39.9804 15.8264 39.7326 10.2558C39.7236 10.0487 39.7057 9.82269 39.567 9.67093C39.4515 9.54458 39.2769 9.49964 39.1107 9.46056C36.8155 8.91932 34.496 8.4823 32.1636 8.15339C30.9005 7.97623 29.6342 7.82903 28.3621 7.74892C25.2506 7.55223 22.1159 7.75674 19.0487 8.32924C13.814 9.3075 8.77699 11.3741 4.34202 14.3597C4.14819 14.4906 3.94794 14.63 3.83241 14.8358C3.70212 15.069 3.70084 15.3516 3.70533 15.6206Z" fill="#65B730"/>
<path d="M30.504 29.216C29.9937 30.0334 29.4803 30.8553 28.8372 31.5698C28.1941 32.2843 27.4085 32.892 26.499 33.1818C27.7762 31.6805 29.0612 30.1187 29.7113 28.2488C29.737 28.1758 29.7678 28.0944 29.8378 28.0638C29.9141 28.0299 30.0021 28.0723 30.0695 28.1218C30.348 28.3237 30.5194 28.6689 30.5142 29.016" fill="#DDFC6D"/>
<path d="M9.79487 31.4957C10.2088 33.2706 10.6228 35.0447 11.0368 36.8195C11.0573 36.9062 11.0772 36.9967 11.056 37.0833C11.0355 37.168 10.9777 37.2377 10.9213 37.3035C10.1543 38.2042 9.34431 39.0672 8.49518 39.8878C8.22882 40.1458 7.95605 40.4004 7.64413 40.5991C6.52544 41.3116 5.00753 41.1748 3.89012 40.4616C3.34008 40.1106 2.87477 39.639 2.44025 39.1486C1.89471 38.5325 1.38895 37.8792 0.928126 37.1953C1.15661 37.971 0.709266 38.7696 0.593738 39.5707C0.453822 40.5424 0.846617 41.5754 1.5937 42.2C1.97301 42.5172 2.42549 42.7275 2.83561 43.0017C3.24574 43.2753 3.63211 43.6407 3.7624 44.1213C3.83621 44.3929 3.82273 44.6795 3.83749 44.9609C3.88691 45.9098 4.30988 46.8783 5.10188 47.3844C5.70904 47.7726 6.45291 47.852 7.16726 47.9217C7.35402 47.94 7.54529 47.9582 7.72756 47.9126C8.09469 47.8214 8.35462 47.4964 8.68452 47.3082C8.88541 47.1936 9.11325 47.1304 9.30387 46.9982C9.58499 46.8034 9.75187 46.4843 9.90462 46.1756C10.5143 44.942 11.0605 43.6759 11.54 42.3843C10.92 41.2654 10.5509 40.0038 10.4688 38.7227C10.4373 38.2316 10.5137 37.6285 10.9598 37.4344C11.3012 37.2852 11.6991 37.465 11.9815 37.7105C12.4013 38.0753 12.6876 38.5943 12.7748 39.148C13.1028 38.6386 13.1862 37.9991 13.1253 37.3946C13.0643 36.7896 12.8692 36.208 12.676 35.6322C12.228 34.299 11.7794 32.9657 11.3314 31.6325" fill="#65B730"/>
<path d="M1.14975 37.6471C1.19019 38.2242 1.46874 38.7518 1.74151 39.2598C1.89876 39.5529 2.05729 39.8479 2.25882 40.1117C2.87497 40.9193 3.83063 41.3687 4.74779 41.7888C4.96345 41.5087 5.23365 41.2717 5.53787 41.0958C3.81779 40.3768 2.28898 39.1933 1.15232 37.6992" fill="#DDFC6D"/>
<path d="M10.4142 45.9424C10.4354 45.592 10.4566 45.2416 10.4778 44.8906C10.5227 44.1448 10.5625 43.3658 10.2628 42.6839C9.88023 41.8125 8.99516 41.2556 8.08121 41.0309C7.80394 40.9632 7.51961 40.9202 7.23464 40.926C6.90924 40.9326 6.58769 41.0009 6.27128 41.0785C5.8496 41.182 5.42151 41.3077 5.07107 41.5676C4.67314 41.8633 4.40614 42.314 4.25018 42.7894C4.09422 43.2649 4.04095 43.7677 4.00116 44.2666C3.96778 44.6886 3.94339 45.1179 4.02811 45.5327C4.24505 46.5931 5.18917 47.4118 6.23405 47.6352C6.76868 47.7491 7.32193 47.7277 7.86812 47.7055C8.13448 47.6944 8.40404 47.6834 8.66013 47.6078C8.98938 47.5108 9.27948 47.3128 9.56381 47.118C9.67292 47.0431 9.79037 46.9552 9.8154 46.8243" fill="#65B730"/>
<path d="M8.73135 41.3734C8.93994 41.4138 9.11901 41.5453 9.27883 41.6867C10.0824 42.3985 10.567 43.4843 10.5066 44.5648C10.4463 45.6453 9.82245 46.69 8.87897 47.1948C9.12735 46.2373 9.36868 45.2669 9.38473 44.2776C9.40077 43.2882 9.17293 42.2631 8.56962 41.4854" fill="#DDFC6D"/>
<path d="M19.0223 43.3105C19.0679 43.9487 19.1058 44.602 18.937 45.2188C18.7682 45.8356 18.3535 46.4192 17.7534 46.6165C17.7207 46.6269 17.6835 46.6367 17.6533 46.6204C17.6238 46.6048 17.301 46.8666 17.2894 46.8347C17.1405 46.4224 17.0186 45.9378 16.8697 45.5256C16.8543 45.4826 17.1212 45.2129 17.1296 45.168C17.1399 45.1165 17.1803 45.0768 17.2201 45.0442C17.4428 44.8606 17.7175 44.757 17.9633 44.6066C18.2836 44.4105 18.5551 44.1331 18.7457 43.8061" fill="#65B730"/>
<path d="M18.6906 43.3483C18.9345 44.1207 18.8556 45.0058 18.5314 45.7444C18.3209 46.2238 17.8761 46.9689 17.2991 46.9858C17.1984 46.9884 17.1477 46.8757 17.1894 46.7924C17.2972 46.5768 17.4583 46.4856 17.6278 46.3143C17.8794 46.0603 18.0674 45.7392 18.199 45.4064C18.4615 44.7453 18.4596 44.0426 18.5629 43.3483C18.5732 43.2779 18.6726 43.291 18.6906 43.3483Z" fill="#DDFC6D"/>
<path d="M17.3857 49.3247C18.6501 49.0427 20.0204 49.2843 21.1166 49.9838C21.3361 50.1238 21.5556 50.2951 21.6487 50.5407C21.7071 50.695 21.7096 50.8644 21.7122 51.0298C21.7167 51.4089 21.7212 51.7879 21.7257 52.167C21.7276 52.3096 21.7289 52.4549 21.6852 52.5903C21.5659 52.9629 21.1564 53.1459 20.7816 53.2403C20.4459 53.3244 20.1025 53.3732 19.7572 53.3856C19.2784 53.4032 18.8003 53.3504 18.324 53.2983C18.0878 53.2723 17.851 53.2462 17.6206 53.1869C17.3594 53.1199 17.111 53.0117 16.8639 52.9036C16.2234 52.6242 15.5822 52.3448 14.9416 52.0654C14.8531 52.027 14.7619 51.9859 14.7003 51.911C14.6265 51.8211 14.6085 51.6981 14.5983 51.5808C14.5482 51.0057 14.6149 50.4202 14.7934 49.8718C14.819 49.7923 14.8531 49.7064 14.9256 49.666C14.9814 49.6347 15.0482 49.6373 15.1117 49.6399C15.5963 49.6627 16.0809 49.6855 16.5654 49.7083" fill="#65B730"/>
<path d="M8.53764 49.6606C9.36559 49.643 10.1274 50.1412 10.9535 50.2011C11.1672 50.2168 11.4136 50.2161 11.551 50.3829C11.6177 50.4643 11.6441 50.5717 11.6691 50.6746C11.8186 51.3064 11.9688 51.9382 12.1184 52.57C12.1556 52.7269 12.1902 52.9041 12.1062 53.0409C12.0529 53.1281 11.9605 53.1822 11.8706 53.2278C11.1774 53.5808 10.3842 53.6648 9.61012 53.7156C9.27317 53.7378 8.93365 53.7547 8.59862 53.7117C8.28926 53.672 7.98825 53.5821 7.69173 53.4857C6.77713 53.188 5.88308 52.824 5.01983 52.3961C4.98325 52.3778 4.94538 52.3589 4.92163 52.3251C4.89403 52.2866 4.88954 52.2358 4.88698 52.1883C4.85296 51.5559 4.91329 50.9189 5.06476 50.3047C5.08209 50.2331 5.10583 50.1556 5.16809 50.1171C5.2297 50.0794 5.30865 50.0937 5.37925 50.1087C6.17703 50.276 6.99984 50.3184 7.80982 50.2344" fill="#65B730"/>
<path d="M12.2692 22.1806C10.0864 22.1806 8.31688 20.2654 8.31688 17.9028C8.31688 15.5403 10.0864 13.6251 12.2692 13.6251C14.452 13.6251 16.2215 15.5403 16.2215 17.9028C16.2215 20.2654 14.452 22.1806 12.2692 22.1806Z" fill="white"/>
<path d="M16.2009 9.15065C15.8935 8.89924 15.5847 8.65044 15.2741 8.4036C15 8.18541 14.7183 7.96592 14.3922 7.84282C13.9661 7.68195 13.4963 7.69693 13.0438 7.74317C12.5143 7.79723 11.9899 7.88971 11.4662 7.98285C10.9457 8.07534 10.4251 8.16717 9.90463 8.25966C9.53045 8.32609 9.15434 8.39252 8.79428 8.51497C8.53563 8.60224 8.28725 8.71753 8.03951 8.83281C7.68073 8.99954 7.31745 9.16823 7.01002 9.41964C6.54085 9.80326 6.2347 10.3504 5.94011 10.8838C5.68017 11.354 5.41125 11.8686 5.48698 12.402C5.52164 12.6469 5.62883 12.882 5.62433 13.1295C5.62369 13.1718 5.62048 13.2187 5.64551 13.2532C5.68659 13.3099 5.77195 13.2962 5.8387 13.2773C6.9882 12.9465 8.14733 12.6097 9.20312 12.0418C9.80964 11.7155 10.3751 11.3162 10.9778 10.9828C12.1998 10.3061 13.5502 9.91137 14.8884 9.52124" fill="#65B730"/>
<path d="M35.9363 27.5651C35.7181 28.133 35.426 28.6723 35.0692 29.1628C35.0018 29.2559 34.928 29.3503 34.8259 29.4018C34.5044 29.5646 34.1636 29.2318 33.9537 28.9361C33.654 28.5154 33.3549 28.0946 33.0552 27.6732C32.8068 28.2737 32.5237 28.8586 32.206 29.4246C32.0777 29.6539 31.887 29.9111 31.6284 29.8857C31.4609 29.8694 31.3299 29.7346 31.2221 29.6037C30.9455 29.2676 30.7106 28.897 30.5245 28.5023C30.4648 28.3753 30.4019 28.2366 30.2793 28.1702C30.115 28.0809 29.9013 28.163 29.778 28.3056C29.6548 28.4483 29.599 28.6359 29.5399 28.8156C29.4417 29.1146 29.3204 29.4168 29.099 29.6382C28.8776 29.8597 28.5342 29.9808 28.2479 29.859C27.6619 29.6089 27.644 28.5636 27.015 28.4698C26.6228 28.4112 26.3128 28.7935 26.1254 29.1471C25.938 29.5008 25.732 29.915 25.3456 30.003C24.9952 30.0831 24.6467 29.8466 24.4195 29.5646C24.1923 29.2826 24.0331 28.9439 23.7744 28.6912C23.7045 28.6235 23.6255 28.561 23.5331 28.5323C23.2719 28.4509 23.0055 28.6587 22.8573 28.8925C22.709 29.1263 22.6179 29.4031 22.4164 29.5907C22.0383 29.943 21.3278 29.7763 21.1411 29.2911C21.0518 29.0599 21.0724 28.8019 21.0384 28.5557C21.005 28.3096 20.8856 28.0419 20.6507 27.9715C20.2727 27.8575 19.9883 28.2985 19.7374 28.6078C19.4588 28.9511 18.9833 29.1986 18.584 29.0156C18.2054 28.8423 18.0648 28.3701 18.034 27.9494C18.0026 27.5286 18.0314 27.0812 17.8261 26.7145C17.579 26.9236 17.4268 27.2225 17.2317 27.4811C17.0366 27.7403 16.7581 27.9767 16.4365 27.9657C16.0418 27.952 15.7581 27.5781 15.5893 27.2167C15.3371 26.6767 15.2049 26.0795 15.2055 25.4816C16.8049 26.0664 18.4043 26.6513 20.0044 27.2355C20.9376 27.5768 21.8747 27.9188 22.8451 28.1239C24.8058 28.5382 26.834 28.3805 28.8301 28.2216C31.149 28.0367 33.4775 27.8504 35.745 27.3267" fill="white"/>
<path d="M7.15645 47.6905C7.30663 48.3685 7.45746 49.0465 7.60765 49.7252C7.61471 49.7578 7.62241 49.7916 7.61471 49.8249C7.59032 49.9369 7.43628 49.9532 7.31882 49.9649C7.06595 49.9903 6.82783 50.1101 6.57367 50.1179C6.27972 50.1271 5.99603 49.9825 5.79514 49.7747C5.59426 49.5676 5.46654 49.3031 5.37283 49.0335C5.19826 48.5294 5.13343 47.9901 5.18285 47.4613" fill="#65B730"/>
<path d="M7.05824 47.9313C7.20393 48.2192 7.15901 48.5748 7.21228 48.8907C7.26748 49.2183 7.43242 49.5427 7.43306 49.8722C7.43306 50.0396 7.22255 50.1295 7.10638 50.0096C6.85799 49.7543 6.78867 49.3342 6.73733 48.989C6.68791 48.6575 6.62116 48.2218 6.81756 47.9313C6.87276 47.8493 7.00753 47.8304 7.05824 47.9313Z" fill="#DDFC6D"/>
<path d="M17.4159 49.453C17.2034 48.6245 16.9916 47.7954 16.7792 46.9669C16.7394 46.8126 16.6399 46.2433 16.5456 46.1163C16.0783 46.5833 15.6624 46.7409 15.3101 47.3024C15.2857 47.3414 15.3197 48.1562 15.3126 48.2018C15.303 48.2611 15.3235 48.3204 15.3428 48.377C15.4583 48.7229 15.5193 49.087 15.5219 49.4517C15.5219 49.4973 15.5225 49.5461 15.5469 49.5845C15.577 49.6321 15.6348 49.6516 15.6887 49.6679C15.9602 49.7487 16.2323 49.8294 16.5038 49.9102" fill="#65B730"/>
<path d="M16.4422 46.2542C16.5847 46.8 16.6572 47.3608 16.792 47.9086C16.912 48.3951 17.17 48.8888 17.1809 49.3896C17.1835 49.5166 17.0115 49.5968 16.9248 49.4971C16.5648 49.0848 16.4685 48.4446 16.3709 47.9157C16.2689 47.3621 16.2169 46.8124 16.3068 46.2542C16.3183 46.1826 16.4255 46.1904 16.4422 46.2542Z" fill="#DDFC6D"/>
<path d="M13.2473 36.8775C13.3821 37.2853 13.4989 37.7177 13.4296 38.1417C13.3539 38.612 13.0561 39.0347 13.0477 39.5114C13.0406 39.9296 13.2672 40.3249 13.5753 40.6024C13.8834 40.8805 14.2684 41.0537 14.6548 41.199C15.708 41.5917 16.8293 41.7975 17.9506 41.8034C18.0584 41.8034 18.1726 41.8008 18.2619 41.7402C18.3491 41.6803 18.3953 41.578 18.4377 41.479C18.8068 40.6076 19.1148 39.7081 19.3587 38.7917C19.4698 38.3723 19.568 37.9353 19.5057 37.5048C19.4492 37.1114 19.2612 36.7505 19.0763 36.4001C18.6938 35.6694 18.3093 34.9379 17.9255 34.2085L17.887 34.1981L14.4398 33.2719C13.5663 32.9651 12.6889 32.672 11.8064 32.3926C11.8982 33.2406 12.1665 34.0463 12.4733 34.8442C12.7326 35.5209 13.0201 36.1911 13.2473 36.8775Z" fill="#DDFC6D"/>
<path d="M11.8315 42.3536C11.4663 43.3279 11.0998 44.3056 10.6075 45.2207C10.2994 45.7932 9.93489 46.3643 9.87584 47.0137C10.4329 47.2671 11.0632 47.2833 11.6742 47.286C12.9745 47.2925 14.2742 47.2579 15.5726 47.1843C15.7517 46.4002 16.6657 46.0205 17.0032 45.2923C16.6496 45.2382 16.2902 45.1822 15.9686 45.024C15.6471 44.8657 15.364 44.5856 15.2902 44.2307C15.262 44.0965 15.2639 43.9539 15.2049 43.8308C15.1323 43.679 14.9828 43.5846 14.839 43.5005C13.997 43.0101 13.0984 42.618 12.1678 42.336" fill="#DDFC6D"/>
<path d="M3.91645 43.868C3.1469 43.4205 2.27274 42.4761 1.44672 42.1492C1.42361 42.1401 1.46469 42.6885 1.45185 42.7093C1.44287 42.7236 1.44864 42.7425 1.45442 42.7581C1.87417 43.8777 2.67516 44.8469 3.68924 45.4598C3.79514 45.5236 3.96201 45.5679 4.01528 45.4552" fill="#DDFC6D"/>
<path d="M15.0045 41.4287C15.3941 41.3642 15.7927 41.3558 16.1842 41.4046C16.4544 41.4385 16.7207 41.4984 16.9864 41.559C17.4145 41.656 17.842 41.7531 18.2701 41.8501C18.3317 41.8638 18.3965 41.8801 18.4408 41.925C18.4819 41.9667 18.4986 42.0273 18.512 42.0852C18.6385 42.6297 18.6167 43.2087 18.4498 43.7415C18.4196 43.8366 18.3824 43.9349 18.3067 43.9994C18.204 44.0867 18.0564 44.09 17.9338 44.144C17.6379 44.2749 17.5281 44.6742 17.2316 44.8031C17.1231 44.8507 17.0012 44.8552 16.8825 44.8559C16.5545 44.8572 16.2265 44.8311 15.903 44.7784C15.7464 44.753 15.5866 44.7191 15.4557 44.6286C15.3248 44.5381 15.2304 44.3765 15.2606 44.2189C15.2875 44.0808 15.4037 43.9662 15.4018 43.8255C15.3992 43.6373 15.1958 43.5246 15.0161 43.4758C14.8363 43.4269 14.6284 43.3839 14.5385 43.2192C14.484 43.1189 14.4898 42.9958 14.5052 42.8824C14.5501 42.56 14.6656 42.2487 14.8408 41.9765" fill="#65B730"/>
<path d="M7.69228 3.36635C7.93553 3.20287 8.09663 2.92932 8.15375 2.63949C8.21087 2.34966 8.1698 2.04485 8.06775 1.76804C8.00806 1.60521 7.9259 1.44825 7.80588 1.3245C7.51065 1.02164 7.01067 0.978003 6.6397 1.17665C6.26873 1.3753 6.02869 1.78107 5.96964 2.20311C5.90995 2.62777 6.03061 3.09019 6.33868 3.38393C6.64676 3.67767 7.15059 3.76365 7.50872 3.53504" fill="#DDFC6D"/>
<path d="M9.6389 7.78237C8.913 6.23617 8.05682 4.75314 7.08317 3.35479C6.80142 5.0573 7.3521 6.7761 7.89508 8.41284" fill="#DDFC6D"/>
<path d="M15.1215 9.6606C14.9983 9.34537 14.3507 8.94286 14.0362 8.82823C13.7217 8.7136 12.7083 8.74552 12.3745 8.74552C10.838 8.74552 10.028 8.76506 8.6308 8.79436C9.18854 8.24466 10.0762 8.34301 10.8509 8.27462C11.8065 8.1906 12.7301 7.79786 13.6883 7.83303C14.6158 7.8669 15.5201 8.32542 16.1035 9.05814" fill="#DDFC6D"/>
<path d="M11.2513 35.9225C10.9644 35.3154 10.8463 34.6264 10.6807 33.9777C10.5241 33.3648 10.1884 32.6236 10.2404 31.9912C10.2488 31.8902 10.3662 31.8583 10.4233 31.941C10.7853 32.4608 10.8559 33.2723 11.0106 33.8858C11.1743 34.5352 11.3906 35.206 11.4092 35.8795C11.4117 35.9615 11.2879 36.0013 11.2506 35.9231L11.2513 35.9225Z" fill="#65B730"/>
<path d="M13.1561 39.2156C13.3775 38.7083 13.5315 38.1794 13.4012 37.6219C13.3011 37.1914 13.0219 36.9667 12.83 36.6013C12.8024 36.5485 12.8486 36.473 12.9109 36.4945C13.3544 36.6462 13.5694 37.2024 13.6394 37.6408C13.7311 38.2178 13.5681 38.7955 13.2562 39.2762C13.2138 39.3413 13.1253 39.2853 13.1554 39.2163L13.1561 39.2156Z" fill="#DDFC6D"/>
<path d="M18.0449 43.8283C17.9274 43.2219 17.998 42.3589 17.2561 42.2176C16.6201 42.0964 15.9635 42.0919 15.3383 41.9154C15.3114 41.9076 15.3095 41.8646 15.3383 41.8581C15.8223 41.7486 16.2966 41.7916 16.7844 41.8574C17.0879 41.8984 17.5802 41.8379 17.8536 41.9857C18.4139 42.2886 18.1752 43.2818 18.1803 43.8087C18.181 43.8856 18.0603 43.9071 18.0449 43.8283Z" fill="#DDFC6D"/>
<path d="M21.458 52.4352C21.311 52.0457 21.2211 51.6458 21.0902 51.2505C20.8887 50.6415 20.6352 50.3953 20.0152 50.237C19.3412 50.0651 18.4523 49.9778 17.9068 49.5108C17.8798 49.4874 17.8946 49.4372 17.928 49.4301C18.3894 49.3272 18.8714 49.4815 19.3233 49.587C19.7918 49.6964 20.3476 49.7701 20.7764 50.0006C21.5472 50.4148 21.7147 51.6126 21.6993 52.4026C21.6961 52.5492 21.5074 52.5622 21.4593 52.4359L21.458 52.4352Z" fill="#DDFC6D"/>
<path d="M11.7852 52.9042C11.6216 52.5004 11.4791 52.1174 11.3674 51.6941C11.3308 51.5554 11.2891 51.1906 11.2076 51.0753C11.0863 50.9041 10.7577 50.835 10.5696 50.7764C10.182 50.6559 9.7866 50.5602 9.39124 50.4703C9.05493 50.3941 8.70257 50.3752 8.41439 50.1739C8.37652 50.1479 8.38551 50.0964 8.42658 50.0801C8.81681 49.9238 9.29176 50.0476 9.69482 50.1264C10.207 50.2267 10.8077 50.3556 11.2769 50.5927C11.567 50.7399 11.5908 50.9679 11.6697 51.2773C11.8064 51.8139 11.9046 52.3304 11.9694 52.8782C11.9829 52.9934 11.8231 52.9921 11.7872 52.9029L11.7852 52.9042Z" fill="#DDFC6D"/>
<path d="M37.358 10.4814C37.8772 10.5517 38.2629 10.9203 38.5036 11.3743C38.4581 10.8969 38.3907 10.4729 38.2982 10.1179C38.2982 10.1179 32.4602 8.61992 26.4323 7.75694C26.4323 7.75694 35.4505 8.09952 38.1956 8.90128C40.9406 9.70304 39.3303 10.6735 39.3303 10.6735C39.3303 10.6735 39.6326 13.2937 39.4311 16.0448C39.2295 18.7953 38.9843 23.7316 37.1943 26.7549C37.1943 26.7549 38.6204 18.3322 38.5813 13.067C38.528 13.0833 38.4664 13.0586 38.4356 13.0097C38.0781 12.4353 38.2103 11.6472 37.5903 11.2115C37.1725 10.9177 36.6764 11.0402 36.5005 11.5449C36.3696 11.9194 36.3015 12.6294 36.3593 13.0169C36.3644 13.0508 36.3189 13.0651 36.308 13.0312C36.0166 12.1129 35.8933 10.284 37.3573 10.482L37.358 10.4814Z" fill="#DDFC6D"/>
<path d="M28.8968 14.1573C28.4187 13.3198 28.1754 12.2764 28.4713 11.3241C28.7441 10.4462 29.6542 9.94728 30.5322 10.2299C32.0096 10.7054 32.3357 13.7692 30.9487 14.5064C30.8723 14.5468 30.7915 14.4804 30.8082 14.397C30.9218 13.8349 31.181 13.3198 31.1952 12.7362C31.2086 12.1871 31.0456 11.5059 30.6464 11.1053C29.9366 10.3928 29.0605 11.132 28.875 11.8979C28.703 12.6085 28.7903 13.4233 28.9931 14.1163C29.0104 14.1749 28.9263 14.2107 28.8962 14.158L28.8968 14.1573Z" fill="#DDFC6D"/>
<path d="M8.45985 8.61335C7.96822 7.12641 7.47659 5.63947 6.98495 4.15254C6.86878 3.80213 7.42331 3.68164 7.5382 4.02879C8.02983 5.51572 8.52146 7.00266 9.0131 8.4896C9.12927 8.84 8.57474 8.96049 8.45985 8.61335Z" fill="#65B730"/>
<path d="M8.19626 17.0881C8.28675 16.1176 8.66415 15.1569 9.30789 14.3897C9.62816 14.0054 10.0197 13.6752 10.46 13.4212C10.9002 13.1665 11.3951 12.9985 11.906 12.9282L12.0979 12.9067L12.2911 12.8956C12.4201 12.8897 12.5497 12.8774 12.68 12.8858C12.9406 12.8936 13.1999 12.9399 13.4496 13.0161C13.9489 13.1691 14.4161 13.4192 14.8134 13.7482C15.6061 14.4112 16.1484 15.3198 16.4019 16.2876C16.5303 16.7722 16.5842 17.2724 16.5739 17.7674C16.5656 18.0149 16.545 18.2617 16.5059 18.506C16.4725 18.7508 16.4225 18.9931 16.3628 19.2335C16.237 19.7135 15.9867 20.1557 15.6735 20.5296C15.3628 20.906 14.9797 21.216 14.5528 21.4134C14.6947 21.2226 14.8288 21.0369 14.9482 20.8448C15.065 20.6514 15.1754 20.4592 15.2665 20.2586C15.3153 20.1609 15.3538 20.0574 15.3988 19.959C15.436 19.8568 15.4764 19.7565 15.5098 19.6536C15.583 19.451 15.6433 19.2458 15.71 19.0426C15.7672 18.8368 15.8236 18.6284 15.8442 18.4135C15.8718 18.1998 15.8718 17.9843 15.8673 17.77C15.85 17.3408 15.7768 16.9168 15.6433 16.5156C15.5136 16.1131 15.3192 15.7366 15.0823 15.3973C14.8404 15.0612 14.5464 14.7701 14.2191 14.5382C13.8905 14.3089 13.5368 14.1266 13.1607 14.0211C12.9727 13.9696 12.7827 13.9305 12.5895 13.8973C12.4932 13.881 12.395 13.8654 12.2962 13.8569L12.1479 13.8556L11.9997 13.8621C11.605 13.8895 11.2115 13.9917 10.847 14.1702C10.4831 14.3487 10.1448 14.5955 9.8528 14.8951C9.78861 14.9609 9.72764 15.0293 9.66795 15.0996C10.1256 14.6925 10.6827 14.4333 11.2982 14.3858C11.6955 14.3552 12.0825 14.4157 12.4451 14.5512C12.2834 14.6984 12.1813 14.9114 12.1813 15.1491C12.1813 15.5933 12.5362 15.9528 12.9733 15.9528C13.3096 15.9528 13.5959 15.7399 13.7114 15.4402C14.2807 16.0818 14.6664 16.9682 14.7415 17.9686C14.9007 20.0828 13.6171 21.9058 11.8752 22.0413C10.7366 22.1298 9.684 21.4746 9.04667 20.4201C8.92793 20.2515 8.81947 20.075 8.72383 19.8906C8.28611 19.0446 8.10384 18.0579 8.19626 17.0881Z" fill="black"/>
<path d="M30.1394 15.0548C29.3067 15.0548 28.6317 14.0738 28.6317 12.8638C28.6317 11.6537 29.3067 10.6728 30.1394 10.6728C30.972 10.6728 31.647 11.6537 31.647 12.8638C31.647 14.0738 30.972 15.0548 30.1394 15.0548Z" fill="black"/>
<path d="M36.1532 12.747C36.0811 11.7898 36.5567 10.9723 37.2155 10.9212C37.8743 10.8702 38.4668 11.6048 38.5389 12.562C38.611 13.5193 38.1354 14.3367 37.4766 14.3878C36.8178 14.4389 36.2253 13.7043 36.1532 12.747Z" fill="black"/>
<path d="M6.53832 45.6806C6.08212 45.6806 5.7123 45.1452 5.7123 44.4848C5.7123 43.8244 6.08212 43.289 6.53832 43.289C6.99452 43.289 7.36434 43.8244 7.36434 44.4848C7.36434 45.1452 6.99452 45.6806 6.53832 45.6806Z" fill="black"/>
<path d="M17.2895 46.9771C17.2869 46.9635 17.2978 46.8853 17.2895 46.8736C17.4929 46.7648 17.8382 46.5688 18.0128 46.3766C18.448 45.8979 18.7175 45.2329 18.7721 44.5041C18.8363 43.6438 18.586 42.8537 18.145 42.3275C18.2727 42.1418 18.4024 41.9582 18.5032 41.7537C18.5051 41.7498 18.5064 41.7465 18.5077 41.7426C19.1443 42.4017 19.5153 43.4308 19.4312 44.5543C19.3658 45.4329 19.0346 46.2412 18.4987 46.8306C18.249 47.1054 17.8042 47.4077 17.5051 47.5536C17.4512 47.3784 17.3248 47.194 17.2888 46.9758L17.2895 46.9771Z" fill="black"/>
<path d="M5.22908 48.0702C6.37666 48.0155 7.06405 47.9008 7.09293 47.8956L7.03709 47.5556C7.03003 47.5569 6.33879 47.6722 5.21368 47.7256L5.22908 48.0702Z" fill="black"/>
<path d="M10.9573 38.7415L11.7955 41.7597L12.1151 41.8528L14.4571 42.5282C14.4571 42.5217 14.4558 42.5146 14.4558 42.5068L14.4796 42.3283C14.5117 42.2143 14.5682 42.116 14.6509 42.032C14.6837 41.9903 14.7209 41.9642 14.7626 41.931C14.8056 41.8984 14.8454 41.862 14.8929 41.8379C14.9308 41.819 14.9693 41.8007 15.0078 41.7851C14.9828 41.7617 14.9565 41.7408 14.9256 41.7239L13.8159 41.1664L13.4321 40.9736L12.8648 40.6883L12.8487 40.6147L12.7634 40.1998L12.7505 40.1393L12.3744 38.3358C12.2647 37.9391 11.8577 37.7079 11.4669 37.8199C11.0754 37.9313 10.8475 38.3436 10.9573 38.7415Z" fill="#65B730"/>
<path d="M11.5117 36.0632H11.5143C11.5162 36.0632 11.5188 36.0632 11.5207 36.0632H11.5233C11.5252 36.0632 11.5278 36.0632 11.5297 36.0632H11.5323C11.5342 36.0632 11.5368 36.0632 11.5387 36.0632H11.5413C11.5432 36.0632 11.5457 36.0632 11.5477 36.0632H11.5502C11.5522 36.0632 11.5547 36.0632 11.5567 36.0632H11.5592C11.5611 36.0632 11.5637 36.0632 11.5656 36.0632H11.5682C11.5701 36.0632 11.5727 36.0632 11.5746 36.0632H11.5772C11.5791 36.0632 11.5817 36.0632 11.5836 36.0632H11.5862C11.5881 36.0632 11.5907 36.0632 11.5926 36.0632H11.5952C11.5971 36.0632 11.5997 36.0632 11.6016 36.0632H11.6041C11.6061 36.0632 11.6086 36.0632 11.6106 36.0632H11.6131C11.6157 36.0632 11.6176 36.0632 11.6196 36.0632H11.6221C11.624 36.0632 11.6266 36.0632 11.6285 36.0632H11.6311C11.633 36.0632 11.6356 36.0632 11.6375 36.0632H11.6401C11.642 36.0632 11.6446 36.0632 11.6465 36.0632H11.6491C11.651 36.0632 11.6536 36.0632 11.6555 36.0632H11.6581C11.66 36.0632 11.6626 36.0632 11.6645 36.0632H11.667C11.669 36.0632 11.6715 36.0632 11.6735 36.0632H11.676C11.678 36.0632 11.6805 36.0632 11.6825 36.0632H11.685C11.6869 36.0632 11.6895 36.0632 11.6914 36.0632H11.694C11.6959 36.0632 11.6985 36.0632 11.7004 36.0632H11.703C11.7049 36.0632 11.7075 36.0632 11.7094 36.0632H11.712C11.7139 36.0632 11.7165 36.0632 11.7184 36.0632H11.721C11.7229 36.0632 11.7255 36.0632 11.7274 36.0632H11.7299C11.7319 36.0632 11.7344 36.0632 11.7364 36.0632H11.7383C11.7409 36.0632 11.7428 36.0632 11.7447 36.0632H11.7473C11.7492 36.0632 11.7518 36.0632 11.7537 36.0632H11.7563C11.7582 36.0632 11.7608 36.0632 11.7627 36.0632H11.7652C11.7672 36.0632 11.7697 36.0632 11.7717 36.0632H11.7742C11.7762 36.0632 11.7787 36.0632 11.7806 36.0632H11.7832C11.7851 36.0632 11.7877 36.0632 11.7896 36.0632H11.7922C11.7941 36.0632 11.7967 36.0632 11.7986 36.0632H11.8012C11.8031 36.0632 11.8057 36.0632 11.8076 36.0632H11.8102C11.8121 36.0632 11.8147 36.0632 11.8166 36.0632H11.8192C11.8211 36.0632 11.8237 36.0632 11.8256 36.0632H11.8281C11.8301 36.0632 11.8326 36.0632 11.8346 36.0632H11.8371C11.8391 36.0632 11.8416 36.0632 11.8435 36.0632H11.8461C11.848 36.0632 11.8506 36.0632 11.8525 36.0632H11.8551C11.857 36.0632 11.8596 36.0632 11.8615 36.0632H11.8641C11.866 36.0632 11.8686 36.0632 11.8705 36.0632H11.8731C11.8756 36.0632 11.8776 36.0632 11.8795 36.0632H11.8821C11.884 36.0632 11.8865 36.0632 11.8885 36.0632H11.891C11.893 36.0632 11.8955 36.0632 11.8975 36.0632H11.9C11.902 36.0632 11.9045 36.0632 11.9064 36.0632H11.909C11.9109 36.0632 11.9135 36.0632 11.9154 36.0632H11.918C11.9199 36.0632 11.9225 36.0632 11.9244 36.0632H11.927C11.9289 36.0632 11.9315 36.0632 11.9334 36.0632H11.936C11.9379 36.0632 11.9405 36.0632 11.9424 36.0632H11.945C11.9469 36.0632 11.9494 36.0632 11.9514 36.0632H11.9539C11.9559 36.0632 11.9584 36.0632 11.9604 36.0632H11.9629C11.9649 36.0632 11.9674 36.0632 11.9693 36.0632H11.9719C11.9738 36.0632 11.9764 36.0632 11.9783 36.0632H11.9809C11.9828 36.0632 11.9854 36.0632 11.9873 36.0632H11.9899C11.9918 36.0632 11.9944 36.0632 11.9963 36.0632H11.9989C12.0014 36.0632 12.0034 36.0632 12.0053 36.0632H12.0079C12.0098 36.0632 12.0123 36.0632 12.0143 36.0632H12.0168C12.0188 36.0632 12.0213 36.0632 12.0233 36.0632H12.0258C12.0277 36.0632 12.0303 36.0632 12.0322 36.0632H12.0348C12.0367 36.0632 12.0393 36.0632 12.0412 36.0632H12.0438C12.0457 36.0632 12.0483 36.0632 12.0502 36.0632H12.0528C12.0547 36.0632 12.0573 36.0632 12.0592 36.0632H12.0618C12.0637 36.0632 12.0663 36.0632 12.0682 36.0632H12.0708C12.0727 36.0632 12.0752 36.0632 12.0772 36.0632H12.0797C12.0817 36.0632 12.0842 36.0632 12.0862 36.0632H12.0887C12.0906 36.0632 12.0932 36.0632 12.0951 36.0632H12.0977C12.0996 36.0632 12.1022 36.0632 12.1041 36.0632H12.1067C12.1086 36.0632 12.1112 36.0632 12.1131 36.0632H12.1157C12.1176 36.0632 12.1202 36.0632 12.1221 36.0632H12.124C12.1266 36.0632 12.1285 36.0632 12.1304 36.0632H12.133C12.1349 36.0632 12.1375 36.0632 12.1394 36.0632H12.142C12.1439 36.0632 12.1465 36.0632 12.1484 36.0632H12.151C12.1529 36.0632 12.1555 36.0632 12.1574 36.0632H12.16C12.1619 36.0632 12.1645 36.0632 12.1664 36.0632H12.1689C12.1709 36.0632 12.1734 36.0632 12.1754 36.0632H12.1779C12.1799 36.0632 12.1824 36.0632 12.1844 36.0632H12.1869C12.1888 36.0632 12.1914 36.0632 12.1933 36.0632H12.1959C12.1978 36.0632 12.2004 36.0632 12.2023 36.0632H12.2049C12.2068 36.0632 12.2094 36.0632 12.2113 36.0632H12.2139C12.2158 36.0632 12.2184 36.0632 12.2203 36.0632H12.2229C12.2248 36.0632 12.2274 36.0632 12.2293 36.0632H12.2318C12.2338 36.0632 12.2363 36.0632 12.2383 36.0632H12.2408C12.2428 36.0632 12.2453 36.0632 12.2473 36.0632H12.2498C12.2524 36.0632 12.2543 36.0632 12.2562 36.0632H12.2588C12.2607 36.0632 12.2633 36.0632 12.2652 36.0632H12.2678C12.2697 36.0632 12.2723 36.0632 12.2742 36.0632H12.2768C12.2787 36.0632 12.2813 36.0632 12.2832 36.0632H12.2858C12.2877 36.0632 12.2903 36.0632 12.2922 36.0632H12.2947C12.2967 36.0632 12.2992 36.0632 12.3012 36.0632H12.3037C12.3057 36.0632 12.3082 36.0632 12.3102 36.0632H12.3127C12.3146 36.0632 12.3172 36.0632 12.3191 36.0632H12.3217C12.3236 36.0632 12.3262 36.0632 12.3281 36.0632C13.1927 36.0632 13.8935 36.9627 13.8935 38.0719C13.8935 39.0456 13.3531 39.8578 12.6362 40.0414C12.633 40.0421 12.6304 40.0427 12.6272 40.0434C12.624 40.044 12.6214 40.0447 12.6182 40.0453C12.615 40.046 12.6124 40.0466 12.6092 40.0473C12.606 40.0479 12.6035 40.0486 12.6003 40.0492C12.597 40.0499 12.5945 40.0505 12.5913 40.0512C12.5881 40.0518 12.5855 40.0525 12.5823 40.0531C12.5791 40.0538 12.5765 40.0545 12.5733 40.0551C12.5701 40.0558 12.5675 40.0564 12.5643 40.0571C12.5611 40.0577 12.5585 40.0584 12.5553 40.059C12.5521 40.0597 12.5495 40.0603 12.5463 40.061C12.5438 40.0616 12.5406 40.0623 12.5374 40.0629C12.5341 40.0636 12.5316 40.0642 12.5284 40.0649C12.5252 40.0655 12.5226 40.0662 12.5194 40.0668C12.5162 40.0675 12.5136 40.0681 12.5104 40.0688C12.5072 40.0694 12.5046 40.0701 12.5014 40.0707C12.4982 40.0714 12.4956 40.072 12.4924 40.0727C12.4892 40.0733 12.4867 40.074 12.4834 40.0746C12.4802 40.0753 12.4777 40.0759 12.4745 40.0766C12.4712 40.0772 12.4687 40.0779 12.4655 40.0786C12.4623 40.0792 12.4597 40.0799 12.4565 40.0805C12.4533 40.0812 12.4507 40.0818 12.4475 40.0825C12.4443 40.0831 12.4417 40.0838 12.4385 40.0844C12.4353 40.0851 12.4327 40.0857 12.4295 40.0864C12.4263 40.087 12.4238 40.0877 12.4205 40.0883C12.4173 40.089 12.4148 40.0896 12.4116 40.0903C12.409 40.0909 12.4058 40.0916 12.4026 40.0922C12.3994 40.0929 12.3968 40.0935 12.3936 40.0942C12.3904 40.0948 12.3878 40.0955 12.3846 40.0961C12.3814 40.0968 12.3788 40.0974 12.3756 40.0981C12.3724 40.0987 12.3698 40.0994 12.3666 40.1C12.3634 40.1007 12.3609 40.1013 12.3576 40.102C12.3544 40.1026 12.3519 40.1033 12.3487 40.104C12.3455 40.1046 12.3429 40.1053 12.3397 40.1059C12.3365 40.1066 12.3339 40.1072 12.3307 40.1079C12.3275 40.1085 12.3249 40.1092 12.3217 40.1098C12.3185 40.1105 12.3159 40.1111 12.3127 40.1118C12.3095 40.1124 12.3069 40.1131 12.3037 40.1137C12.3005 40.1144 12.298 40.115 12.2947 40.1157C12.2915 40.1163 12.289 40.117 12.2858 40.1176C12.2826 40.1183 12.28 40.1189 12.2768 40.1196C12.2736 40.1202 12.271 40.1209 12.2678 40.1215C12.2646 40.1222 12.262 40.1228 12.2588 40.1235C12.2556 40.1241 12.253 40.1248 12.2498 40.1254C12.2466 40.1261 12.244 40.1267 12.2408 40.1274C12.2376 40.128 12.2351 40.1287 12.2318 40.1294C12.2286 40.13 12.2261 40.1307 12.2229 40.1313C12.2197 40.132 12.2171 40.1326 12.2139 40.1333C12.2107 40.1339 12.2081 40.1346 12.2049 40.1352C12.2017 40.1359 12.1991 40.1365 12.1959 40.1372C12.1927 40.1378 12.1901 40.1385 12.1869 40.1391C12.1837 40.1398 12.1811 40.1404 12.1779 40.1411C12.1747 40.1417 12.1722 40.1424 12.1689 40.143C12.1657 40.1437 12.1632 40.1443 12.16 40.145C12.1568 40.1456 12.1542 40.1463 12.151 40.1469C12.1478 40.1476 12.1452 40.1482 12.142 40.1489C12.1394 40.1495 12.1362 40.1502 12.1336 40.1508C12.1304 40.1515 12.1279 40.1521 12.1247 40.1528C12.1215 40.1535 12.1189 40.1541 12.1157 40.1548C12.1125 40.1554 12.1099 40.1561 12.1067 40.1567C12.1035 40.1574 12.1009 40.158 12.0977 40.1587C12.0945 40.1593 12.0919 40.16 12.0887 40.1606C12.0855 40.1613 12.0829 40.1619 12.0797 40.1626C12.0765 40.1632 12.074 40.1639 12.0708 40.1645C12.0675 40.1652 12.065 40.1658 12.0618 40.1665C12.0592 40.1671 12.056 40.1678 12.0528 40.1684C12.0496 40.1691 12.047 40.1697 12.0438 40.1704C12.0412 40.171 12.038 40.1717 12.0348 40.1723C12.0316 40.173 12.029 40.1736 12.0258 40.1743C12.0226 40.1749 12.02 40.1756 12.0168 40.1762C12.0136 40.1769 12.0111 40.1776 12.0079 40.1782C12.0046 40.1789 12.0021 40.1795 11.9989 40.1802C11.9957 40.1808 11.9931 40.1815 11.9899 40.1821C11.9867 40.1828 11.9841 40.1834 11.9809 40.1841C11.9777 40.1847 11.9751 40.1854 11.9719 40.186C11.9687 40.1867 11.9661 40.1873 11.9629 40.188C11.9597 40.1886 11.9572 40.1893 11.9539 40.1899C11.9507 40.1906 11.9482 40.1912 11.945 40.1919C11.9417 40.1925 11.9392 40.1932 11.936 40.1938C11.9328 40.1945 11.9302 40.1951 11.927 40.1958C11.9238 40.1964 11.9212 40.1971 11.918 40.1977C11.9148 40.1984 11.9122 40.199 11.909 40.1997C11.9058 40.2003 11.9032 40.201 11.9 40.2016C11.8968 40.2023 11.8943 40.2029 11.891 40.2036C11.8885 40.2043 11.8853 40.2049 11.8821 40.2056C11.8788 40.2062 11.8763 40.2069 11.8731 40.2075C11.8699 40.2082 11.8673 40.2088 11.8641 40.2095C11.8609 40.2101 11.8583 40.2108 11.8551 40.2114C11.8519 40.2121 11.8493 40.2127 11.8461 40.2134C11.8429 40.214 11.8403 40.2147 11.8371 40.2153C11.8339 40.216 11.8314 40.2166 11.8281 40.2173C11.721 40.2453 11.6106 40.2603 11.497 40.2603C10.5939 40.2603 9.86161 39.3204 9.86161 38.1618C9.86161 37.0031 10.5939 36.0632 11.497 36.0632H11.5117Z" fill="#65B730"/>
<path d="M12.4591 36.4585C12.3923 36.3628 12.5027 36.2397 12.6035 36.2677C13.2209 36.4364 13.6214 37.1189 13.7318 37.7253C13.8749 38.5095 13.5534 39.1777 13.0656 39.7639C12.8801 39.9866 12.5771 39.7027 12.6888 39.4688C12.9783 38.8651 13.1708 38.2307 13.1959 37.5677C13.1914 37.5534 13.1875 37.539 13.1824 37.5247C13.029 37.0974 12.71 36.8193 12.4584 36.4592L12.4591 36.4585Z" fill="#DDFC6D"/>
<path d="M11.3827 38.8875C11.1059 38.8875 10.8815 38.5626 10.8815 38.1619C10.8815 37.7612 11.1059 37.4364 11.3827 37.4364C11.6596 37.4364 11.884 37.7612 11.884 38.1619C11.884 38.5626 11.6596 38.8875 11.3827 38.8875Z" fill="black"/>
<path d="M12.9687 40.9819C12.6857 40.8373 12.5926 40.7162 12.6311 40.3521C12.6317 40.343 12.6356 40.3325 12.6407 40.3221L12.7062 40.3065C12.7312 40.3 12.7563 40.2928 12.7807 40.285L12.8333 40.539L12.8487 40.6147L12.8577 40.6556L12.8648 40.6883L13.0541 40.7832L13.4321 40.9736C13.4636 40.9918 13.4963 41.0092 13.529 41.0262C13.624 41.075 13.7197 41.1208 13.8159 41.1664L14.4539 41.4867C14.4468 41.4958 14.441 41.5049 14.434 41.514C13.9712 41.4072 13.3923 41.1968 12.9687 40.9819Z" fill="#DDFC6D"/>
<path d="M0.286995 37.0175L0.537307 35.1138L1.55331 36.7336C2.05714 37.5366 3.08661 38.978 3.70148 39.4241C4.92992 40.3158 5.78996 40.4278 6.02872 40.4408C6.26747 40.3763 6.51008 40.3438 6.75077 40.3438C6.82843 40.3438 6.91122 40.3477 7.003 40.3568L7.10248 40.3555L9.29943 38.0896C9.3174 37.25 9.64986 36.4646 10.1864 35.978L9.24423 32.1679L9.15566 32.1379L6.5242 26.7145L6.12178 26.8161L5.84516 26.5295C5.75466 26.4357 3.62317 24.1262 2.94926 14.7832L2.9191 14.3644L3.26889 14.1397C3.27595 14.1351 3.94088 13.7105 5.15969 13.0546C5.11862 12.5564 5.06983 11.849 5.09358 11.5332C5.14557 10.8323 6.53832 9.22557 7.38617 8.48438L6.37787 4.12127C5.63143 3.87768 5.1077 3.16385 5.1077 2.35492C5.1077 1.33172 5.92795 0.5 6.93561 0.5C7.94326 0.5 8.76351 1.33237 8.76351 2.35492C8.76351 2.76134 8.63258 3.15147 8.39189 3.47257L10.2756 7.41624C11.1864 7.24234 13.7614 6.80792 14.7928 7.24234C15.5886 7.57776 16.2215 8.0949 16.5854 8.43684C19.7964 7.53022 22.9683 6.96032 26.0143 6.74409L26.0548 6.74083L26.0959 6.74279C26.5041 6.76232 36.1313 7.24104 39.7531 8.65307L40.1382 8.80287L40.1902 9.21841C40.2024 9.31741 41.3814 19.1932 38.1402 27.2492L37.9965 27.6068L37.6217 27.6739C37.5523 27.6862 37.2006 27.7488 36.6454 27.8413C36.0043 29.2383 35.4087 30.0375 34.8734 30.2166C34.5897 30.3117 34.2874 30.2811 34.0185 30.1293C33.6757 29.9359 33.3812 29.5327 33.1251 28.9055C32.912 29.4532 32.5847 29.9977 32.0853 30.3045C31.774 30.4953 31.4031 30.5279 31.0725 30.3931C30.9981 30.3625 30.9243 30.3234 30.8517 30.2752C30.1156 31.3844 28.8518 33.0478 27.5823 33.6066C25.834 34.3765 20.8471 34.6884 19.0589 34.7327C19.1276 34.8734 19.1924 35.0076 19.2541 35.1359C20.2469 35.3065 21.0011 36.3297 21.0011 37.5516C21.0011 37.9118 20.9337 38.27 20.806 38.595L20.9221 39.1499L22.3598 39.8729L22.3926 39.8904C22.4092 39.8996 22.4246 39.9093 22.44 39.9191C24.3302 39.9999 24.8411 40.1529 25.0612 40.2617C25.4701 40.4642 25.7146 40.954 25.7891 41.7187C25.8218 42.058 25.8873 43.1971 25.3417 43.6192C25.1549 43.7638 24.9688 43.8641 24.7885 43.9188C24.5645 44.1174 24.1884 44.3285 23.6037 44.3285C22.372 44.3285 21.786 44.2399 21.5685 43.7136C21.4882 43.5195 21.485 43.304 21.5627 43.0044C21.3169 42.88 21.1006 42.7054 20.9286 42.4911C20.9106 42.4683 20.8926 42.4442 20.8759 42.4201L19.1501 41.9219C19.1443 41.9369 19.1385 41.9518 19.1334 41.9675C19.4415 42.4631 19.6359 43.0486 19.6976 43.6654C19.7373 43.9663 19.7457 44.2731 19.7232 44.5773C19.6526 45.5223 19.2938 46.3951 18.7136 47.0333C18.4903 47.2795 18.1411 47.5348 17.844 47.7081C17.9191 48.0097 17.9916 48.2682 18.0596 48.4734C18.9588 48.5489 20.7225 48.7495 21.4927 49.1976C22.5658 49.8222 22.7776 51.9227 22.8174 52.5519L22.8527 53.1074L22.3271 53.2677C22.0742 53.3445 19.8176 54.0186 18.4396 54.0186C18.317 54.0186 18.2015 54.0134 18.0969 54.0023C16.8126 53.8675 14.4423 52.7844 14.176 52.6613L13.7678 52.4724L13.7723 52.0172C13.7793 51.3124 13.8788 49.6777 14.6086 48.9671C14.5335 48.6564 14.4763 48.334 14.441 48.0715C13.9071 48.1204 13.2088 48.1438 12.2788 48.1438H12.2704C10.9155 48.1438 9.81609 48.0429 9.32959 47.9895C9.14475 48.0833 8.95284 48.1562 8.75581 48.2063L8.64734 48.2324C8.63835 48.235 8.62937 48.237 8.62166 48.2389L8.18202 48.3438C8.17303 48.3464 8.16533 48.3477 8.15571 48.3496H8.15378C8.18202 48.5724 8.2308 48.8231 8.30397 49.0446C9.0979 49.1012 10.9572 49.2804 11.7608 49.748C12.8339 50.3726 13.0457 52.4731 13.0855 53.1022L13.1202 53.6578L12.5945 53.818C12.3423 53.8949 10.0876 54.569 8.70703 54.569C8.58316 54.569 8.46763 54.5638 8.3643 54.5527C7.08002 54.4179 4.70978 53.3347 4.44342 53.2116L4.03587 53.0228L4.04036 52.5675C4.04742 51.8602 4.14754 50.2234 4.87986 49.5148C4.72325 48.9378 4.57114 48.2135 4.46139 47.5199C4.1193 47.1291 3.84396 46.651 3.65912 46.1267C1.11944 44.6033 0.288922 42.5556 0.0411793 41.0973C-0.114783 40.1796 0.21768 37.5386 0.286355 37.0182L0.286995 37.0175ZM21.7174 41.8418C21.8509 42.0079 22.0152 42.0951 22.1519 42.1401C22.2212 41.817 22.0954 41.7564 22.0954 41.7564C22.0954 41.7564 22.7513 41.7441 22.82 42.0359C22.8669 42.2358 22.7757 42.5869 22.7141 42.7881C22.7109 42.7992 22.707 42.8109 22.7032 42.822C22.6801 42.8943 22.6634 42.9405 22.6634 42.9405L22.6595 42.936C22.6082 43.0682 22.5742 43.1698 22.5536 43.244C22.7038 43.2707 23.0055 43.3007 23.6069 43.3007H23.6101C23.8257 43.3007 23.9669 43.2473 24.0536 43.1958C24.0998 43.0838 24.2391 42.7191 24.241 42.3491C24.2436 41.9056 24.241 41.5487 24.241 41.5487C24.241 41.5487 24.44 42 24.5253 42.3374C24.5709 42.5178 24.5677 42.7419 24.5548 42.9125C24.5921 42.8949 24.6434 42.8663 24.7089 42.8181C24.8571 42.551 24.8225 41.3878 24.61 41.1839C24.4233 41.1006 23.6159 40.9944 22.2096 40.941C22.148 40.9377 22.0928 40.9664 22.055 41.0172C21.7045 41.4875 21.6622 41.7727 21.718 41.8424L21.7174 41.8418ZM9.7686 39.1786L8.34119 40.6512C9.58889 40.7814 10.6171 41.89 10.9341 43.36C11.0676 43.0799 11.2018 42.781 11.3379 42.4644L11.153 42.411L10.5574 40.2643C10.214 40.0227 9.93676 39.641 9.76924 39.1792L9.7686 39.1786ZM10.1595 38.1619C10.1595 39.1395 10.741 39.9386 11.4649 39.9719C12.1542 39.9386 12.7075 39.1395 12.7075 38.1619C12.7075 37.1843 12.1542 36.3858 11.4649 36.3519C10.741 36.3851 10.1595 37.1843 10.1595 38.1619ZM12.8647 39.6195C13.3095 39.3427 13.6086 38.7402 13.6086 38.059C13.6086 37.2513 13.1921 36.5727 12.6395 36.3877C13.0117 36.8247 13.2466 37.4585 13.2466 38.1619C13.2466 38.7103 13.1041 39.2157 12.8647 39.6195ZM12.8648 40.6883L12.8487 40.6147L12.7807 40.285C12.7563 40.2928 12.7312 40.3 12.7062 40.3065L12.4161 40.3763L12.2685 40.4115C12.2614 40.4134 12.255 40.4147 12.2486 40.4161L11.9142 40.4962C11.7826 40.5307 11.6472 40.5483 11.5124 40.5483C11.4964 40.5483 11.481 40.547 11.4656 40.547C11.4636 40.547 11.4604 40.547 11.4604 40.547L11.7967 41.7597L12.1164 41.8528L13.9674 42.3863C14.0444 42.1329 14.1965 41.8353 14.4558 41.4868L12.866 40.6883L12.8648 40.6883ZM12.4225 35.7657C12.1003 34.7581 11.6844 33.5571 11.2531 32.5137C10.9252 32.4089 10.6306 32.3131 10.3803 32.2311L11.2595 35.7853C11.3122 35.7794 11.3654 35.7755 11.4194 35.7755C11.4341 35.7755 11.4495 35.7768 11.4643 35.7768C11.4797 35.7768 11.4957 35.7755 11.5111 35.7755L12.3263 35.7625C12.3583 35.7625 12.3911 35.7638 12.4225 35.7657ZM6.17697 11.6354C6.16542 11.8471 6.19623 12.3597 6.23281 12.828C7.12494 12.3714 8.20962 11.8484 9.4541 11.3072C8.95926 10.2344 8.47598 9.55122 8.20962 9.2171C7.45997 9.81305 6.28673 11.2948 6.17697 11.6354ZM6.93753 1.48869C6.46708 1.48869 6.08391 1.87752 6.08391 2.35492C6.08391 2.83233 6.46708 3.22116 6.93753 3.22116C7.40799 3.22116 7.79115 2.83233 7.79115 2.35492C7.79115 1.87752 7.40799 1.48869 6.93753 1.48869ZM7.49463 4.11802L8.37264 7.91774C8.71601 7.78227 9.17428 7.63377 9.17428 7.63377L7.49463 4.11802ZM14.3775 8.26098C13.5804 7.92491 10.284 8.45963 8.94322 8.86019C9.25514 9.27312 9.71725 9.97197 10.1858 10.9945C11.7813 10.3263 13.6073 9.64371 15.6092 9.03409C15.3075 8.78073 14.8781 8.47201 14.3775 8.26098ZM34.5441 29.166C34.7322 29.067 35.1224 28.4633 35.4908 27.7279C35.0306 27.8002 34.5101 27.8797 33.946 27.9617C34.2091 28.8195 34.453 29.1178 34.5441 29.166ZM37.2173 26.6279C39.9836 19.556 39.2942 11.1241 39.1396 9.60007C36.0062 8.49285 28.6343 7.9946 26.5836 7.87476C26.5618 8.47005 26.5297 9.06274 26.5015 9.65739C26.4559 10.4357 26.4033 11.214 26.3487 11.9917C26.239 13.547 26.0952 15.1004 25.9322 16.6511C25.7602 18.2012 25.576 19.7507 25.3391 21.293C25.282 21.6786 25.2159 22.0635 25.1549 22.4484L25.0612 23.0255L24.9585 23.6012C24.8173 24.3685 24.6633 25.1331 24.4932 25.8932C24.5272 25.5044 24.5632 25.1168 24.603 24.7293C24.6434 24.3424 24.6678 23.9536 24.7012 23.5661L24.7538 22.9851L24.7981 22.4035C24.8263 22.0153 24.8597 21.6284 24.8841 21.2402L25.0362 18.9131C25.0895 18.1381 25.1306 17.3617 25.1755 16.586C25.2673 15.0346 25.3398 13.4825 25.4239 11.9311L25.5394 9.60398L25.6305 7.87932C14.5977 8.78985 5.50499 14.0648 4.05255 14.9467C4.60837 22.27 6.05696 24.9325 6.49596 25.5851L12.531 24.0617L13.9513 23.6774L14.6946 24.2317C17.0282 25.9284 22.9631 27.864 23.5472 28.0295C28.0483 28.1682 35.8239 26.8669 37.2173 26.6266V26.6279ZM16.0604 27.4146C16.0976 27.4505 16.122 27.455 16.1598 27.4505C16.4198 27.4192 16.8267 26.9991 17.1405 26.5901C16.6194 26.3524 16.1181 26.1029 15.6605 25.8443C15.6457 26.3322 15.7054 27.0681 16.0604 27.4146ZM18.8228 28.714C18.86 28.7498 18.8844 28.7544 18.9222 28.7498C19.2136 28.7147 19.6911 28.1904 20.0127 27.741C19.4999 27.5579 18.9614 27.356 18.4223 27.1385C18.4069 27.6263 18.4659 28.3662 18.8228 28.714ZM21.2411 28.1623C21.2443 28.6391 21.3258 29.2611 21.6435 29.5711C21.6808 29.6069 21.7052 29.6115 21.743 29.6069C22.0235 29.5731 22.4753 29.0872 22.7956 28.6502C22.4144 28.5368 21.874 28.3708 21.2411 28.1623ZM24.4817 28.8449C24.7557 29.3692 25.0651 29.7965 25.2294 29.8512C25.4855 29.6265 25.6851 29.2044 25.825 28.8078C25.3629 28.8286 24.913 28.8417 24.4817 28.8449ZM27.7845 28.6821C28.0489 29.1738 28.3377 29.5659 28.495 29.618C28.7536 29.3914 28.9545 28.9628 29.0944 28.5636C28.6574 28.6072 28.2196 28.6469 27.7845 28.6821ZM31.4794 29.3718C31.4936 29.3777 31.4974 29.379 31.5244 29.3627C31.8478 29.1641 32.0731 28.6645 32.2156 28.2014C31.7728 28.2594 31.3158 28.3167 30.8505 28.3721C31.0501 28.8716 31.2927 29.2956 31.4794 29.3718ZM27.1516 32.5971C28.4289 32.0344 29.8678 29.8186 30.3043 29.1087C30.1964 28.8918 30.1066 28.6691 30.0334 28.4652C30.0077 28.4678 29.9827 28.4711 29.957 28.4737C29.8043 29.011 29.5071 29.7997 29.0046 30.2348C28.8582 30.3612 28.6862 30.4269 28.5072 30.4269C28.4475 30.4269 28.3871 30.4198 28.3268 30.4048C27.7267 30.2589 27.2036 29.3373 26.9244 28.7459C26.841 28.7518 26.7582 28.757 26.6748 28.7622C26.5175 29.2969 26.2242 30.0479 25.7384 30.468C25.592 30.5943 25.42 30.6601 25.2409 30.6601C25.1813 30.6601 25.1209 30.6529 25.0606 30.638C24.4098 30.4797 23.8495 29.4083 23.5921 28.8371C23.5876 28.8371 23.5825 28.8371 23.578 28.8371C23.3495 29.1888 22.5902 30.2674 21.831 30.3592C21.7937 30.3638 21.7565 30.3664 21.7206 30.3664C21.4979 30.3664 21.2938 30.2817 21.1256 30.1176C20.6513 29.6551 20.5197 28.9172 20.4966 28.3499C20.1513 28.8065 19.5807 29.4324 19.0102 29.5021C18.9729 29.5066 18.9357 29.5092 18.8998 29.5092C18.6771 29.5092 18.473 29.4246 18.3048 29.2605C17.7201 28.6899 17.6559 27.7012 17.6739 27.1294C17.3247 27.5762 16.7863 28.1376 16.2478 28.2027C16.2105 28.2073 16.1733 28.2099 16.1374 28.2099C15.9147 28.2099 15.7106 28.1252 15.5424 27.9611C14.7395 27.1782 14.9179 25.606 14.9436 25.4086C14.7722 25.2946 14.6105 25.18 14.4622 25.0641L13.8178 24.627L12.7672 24.8322L7.47024 26.1693L9.92905 31.2372C12.0631 31.9504 17.3427 33.6275 18.5981 33.6372C20.4016 33.6464 25.637 33.2634 27.1504 32.5964L27.1516 32.5971ZM19.4517 36.2509C19.7951 37.0091 19.9658 37.4559 20.0461 37.7307C20.0512 37.6727 20.0544 37.6135 20.0544 37.5536C20.0544 36.9843 19.8086 36.4906 19.4517 36.2509ZM19.3522 40.9104L21.0338 41.3963C21.1038 41.1657 21.2418 40.8954 21.4773 40.5789L20.0332 39.8533L20.0191 39.7863L19.9299 39.3538L19.9267 39.3394C19.8484 39.4033 19.7662 39.4593 19.6796 39.5068C19.5384 39.9439 19.385 40.403 19.22 40.872L19.3522 40.9104ZM19.2874 38.102C19.2971 38.0707 19.3054 38.0433 19.3118 38.0205C19.2207 37.6154 18.4107 35.8641 17.6386 34.3166C16.2516 34.0456 14.0187 33.3839 12.2435 32.8283C12.9 34.4318 13.2935 35.5423 13.5245 36.3135C13.9218 36.7349 14.1741 37.3608 14.1741 38.059C14.1741 38.7572 13.9128 39.4098 13.4963 39.8351L13.5598 40.1399L15.2773 41.0035L15.3062 41.0192C15.3434 41.04 15.3794 41.0635 15.414 41.0875C16.8639 41.1468 17.7952 41.253 18.1854 41.4047C18.5525 40.4147 18.9216 39.3095 19.2861 38.1026L19.2874 38.102ZM15.9307 43.0916C15.9827 43.3118 15.8826 43.6986 15.8145 43.9194C15.8113 43.9305 15.8075 43.9422 15.8043 43.9533C15.7786 44.0354 15.7593 44.0875 15.7593 44.0875L15.7549 44.0823C15.6984 44.2275 15.6611 44.3395 15.638 44.4209C15.803 44.4502 16.1355 44.4835 16.7972 44.4835H16.8004C17.0379 44.4835 17.1932 44.4248 17.2888 44.3682C17.3401 44.2451 17.4929 43.8432 17.4955 43.4362C17.498 42.9483 17.4955 42.5549 17.4955 42.5549C17.4955 42.5549 17.7143 43.0519 17.808 43.4231C17.8581 43.6211 17.8549 43.868 17.8408 44.0556C17.8818 44.0367 17.9383 44.0048 18.0102 43.9514C18.1732 43.6576 18.1354 42.3771 17.9017 42.1531C17.6964 42.0613 16.8074 41.9447 15.2594 41.8854C15.1913 41.8821 15.131 41.9134 15.0893 41.9694C14.7036 42.4866 14.6567 42.8011 14.7183 42.8773C14.8653 43.0604 15.0463 43.1561 15.1965 43.2063C15.2728 42.8506 15.1342 42.7842 15.1342 42.7842C15.1342 42.7842 15.855 42.7705 15.9307 43.0916ZM16.4653 46.5878C16.1181 47.0249 15.7638 47.3668 15.4314 47.5589C15.4725 47.925 15.665 48.941 15.8486 49.3084C16.1919 49.3572 16.783 49.2869 17.1624 49.2009C16.8023 48.42 16.5623 47.1603 16.466 46.5885L16.4653 46.5878ZM18.0237 46.2576C18.4608 45.7763 18.7316 45.1087 18.7868 44.3767C18.7939 44.2835 18.7964 44.191 18.7958 44.0992C18.7374 44.2972 18.6482 44.4698 18.5134 44.574C18.2804 44.7544 18.0866 44.8352 17.9402 44.8677C17.8286 44.9785 17.6463 45.1152 17.3761 45.2019C17.2952 45.3478 17.2118 45.491 17.1271 45.6298C17.1726 45.9274 17.2452 46.3345 17.3331 46.767C17.5455 46.7012 17.8478 46.4498 18.023 46.257L18.0237 46.2576ZM18.2098 52.9055C18.3812 52.9231 18.593 52.9186 18.8285 52.8984C18.7952 52.7219 18.7778 52.5434 18.7618 52.3649C18.7451 52.1709 18.7355 51.9761 18.7284 51.7794C18.7207 51.5834 18.7162 51.386 18.7233 51.1841C18.7316 50.9816 18.7432 50.7784 18.7759 50.5589C18.9344 50.7165 19.0429 50.9002 19.1424 51.0845C19.2386 51.2708 19.3118 51.4642 19.3754 51.6596C19.4395 51.855 19.4902 52.0536 19.53 52.2536C19.5641 52.432 19.5904 52.6118 19.5987 52.7935C19.8965 52.7414 20.2046 52.6776 20.5011 52.6098C20.4735 52.4496 20.4581 52.2887 20.4433 52.1272C20.4267 51.9331 20.417 51.7384 20.41 51.5417C20.4023 51.3456 20.3978 51.1483 20.4048 50.9464C20.4132 50.7438 20.4247 50.5406 20.4575 50.3211C20.616 50.4788 20.7245 50.6624 20.8239 50.8468C20.9209 51.033 20.9934 51.2265 21.0569 51.4219C21.1211 51.6172 21.1718 51.8159 21.2116 52.0158C21.2373 52.15 21.2578 52.2848 21.2707 52.4203C21.4298 52.3786 21.5768 52.3382 21.7064 52.3018C21.6121 51.4564 21.3483 50.3843 20.9536 50.1544C20.4382 49.8542 18.9813 49.6659 18.1001 49.5845L18.0506 49.6477C17.8234 49.9382 16.8864 50.1244 16.1534 50.1244C15.8806 50.1244 15.6361 50.099 15.4673 50.043L15.3313 49.9981L15.2574 49.8802C15.0553 50.2143 14.9032 51.0167 14.8672 51.7657C15.5097 52.051 17.2824 52.8078 18.2085 52.9049L18.2098 52.9055ZM14.9776 46.9057C15.3749 46.7201 15.9256 46.1052 16.4256 45.2839C15.373 45.2631 14.9904 45.14 14.855 44.8124C14.7889 44.6528 14.7825 44.4398 14.9481 43.9702C14.6862 43.883 14.3666 43.7136 14.1034 43.3854C14.0675 43.3404 14.0341 43.2903 14.0046 43.2336L12.1029 42.6846C11.7537 43.5033 11.3796 44.2809 10.9906 44.9452C10.8796 45.7359 10.5651 46.4504 10.1107 46.9884C11.6164 47.0737 13.875 47.1017 14.9776 46.9057ZM10.3097 44.3148C10.3097 42.949 9.60429 41.7981 8.65183 41.4686C9.36553 42.1726 9.82444 43.2623 9.82444 44.4841C9.82444 45.4038 9.5645 46.2492 9.13192 46.9109C9.84048 46.4107 10.3097 45.4233 10.3097 44.3148ZM8.47726 53.4552C8.639 53.4722 8.83732 53.4689 9.05811 53.4513C9.0196 53.2618 9.00162 53.0703 8.98429 52.8782C8.96761 52.6841 8.95798 52.4893 8.95092 52.2927C8.94322 52.0966 8.93873 51.8993 8.94579 51.6974C8.95413 51.4948 8.96568 51.2916 8.99841 51.0721C9.15694 51.2297 9.26541 51.4134 9.36489 51.5977C9.46117 51.784 9.53434 51.9774 9.59788 52.1728C9.66206 52.3682 9.71276 52.5668 9.75255 52.7668C9.78978 52.9596 9.81738 53.1543 9.82315 53.3504C10.1222 53.2996 10.4322 53.2357 10.732 53.168C10.6992 52.9935 10.6819 52.817 10.6665 52.6404C10.6498 52.4464 10.6402 52.2516 10.6331 52.0549C10.6254 51.8589 10.6209 51.6615 10.628 51.4596C10.6363 51.2571 10.6479 51.0539 10.6806 50.8344C10.8392 50.992 10.9476 51.1757 11.0471 51.36C11.144 51.5463 11.2165 51.7397 11.2801 51.9351C11.3443 52.1305 11.395 52.3291 11.4348 52.5291C11.4636 52.6789 11.4868 52.8293 11.4989 52.9804C11.6735 52.9348 11.8346 52.8912 11.9752 52.8515C11.8808 52.0061 11.6177 50.934 11.223 50.7041C10.6947 50.3967 9.20508 50.2215 8.35403 50.1538L8.32001 50.1974C8.09281 50.4879 7.15575 50.6741 6.42279 50.6741C6.15002 50.6741 5.90613 50.6481 5.73733 50.5927L5.6019 50.5478L5.5281 50.4299C5.32592 50.764 5.17381 51.5664 5.13787 52.3148C5.78033 52.6001 7.55304 53.3569 8.47918 53.4539L8.47726 53.4552ZM7.41633 49.7532C7.17501 49.2471 7.08772 48.6538 7.05627 48.3073C6.9555 48.3197 6.8541 48.3268 6.75077 48.3268C6.36696 48.3268 5.99983 48.2376 5.66095 48.0767C5.8105 48.8303 5.99149 49.5331 6.12563 49.86C6.46644 49.905 7.04022 49.8379 7.41569 49.7539L7.41633 49.7532ZM6.75141 47.557C8.02799 47.557 9.06645 46.1788 9.06645 44.4841C9.06645 42.7894 8.02799 41.4113 6.75141 41.4113C5.47483 41.4113 4.43636 42.7894 4.43636 44.4841C4.43636 46.1788 5.47483 47.557 6.75141 47.557ZM3.69185 44.8371C3.68351 44.7212 3.67837 44.6033 3.67837 44.4848C3.67837 44.2275 3.69891 43.9761 3.73806 43.7332C3.22011 43.5345 2.37933 43.1509 1.6515 42.538C2.04558 43.3137 2.68163 44.1213 3.69185 44.8371ZM3.93638 42.9457C4.16423 42.2977 4.53007 41.7434 4.98832 41.3403C4.47808 41.1722 3.82407 40.8694 3.06929 40.321C2.47047 39.8859 1.74264 38.9395 1.23946 38.2251C1.16693 38.9102 1.09697 39.7165 1.0867 40.2988C1.41596 41.7623 3.08405 42.6051 3.93638 42.9457Z" fill="black"/>
</svg>
